<?xml version="1.0" standalone="no"?>
<!DOCTYPE svg PUBLIC "-//W3C//DTD SVG 20010904//EN"
 "http://www.w3.org/TR/2001/REC-SVG-20010904/DTD/svg10.dtd">
<svg version="1.0" xmlns="http://www.w3.org/2000/svg"
 width="212.000000pt" height="178.000000pt" viewBox="0 0 212.000000 178.000000"
 preserveAspectRatio="xMidYMid meet">

<g transform="translate(0.000000,178.000000) scale(0.100000,-0.100000)"
fill="#000000" stroke="none">
<path d="M959 1727 c5 -5 19 -7 32 -5 20 3 19 5 -9 9 -20 3 -29 2 -23 -4z"/>
<path d="M1105 1730 c27 -12 43 -12 25 0 -8 5 -22 9 -30 9 -10 0 -8 -3 5 -9z"/>
<path d="M1048 1713 c7 -3 16 -2 19 1 4 3 -2 6 -13 5 -11 0 -14 -3 -6 -6z"/>
<path d="M1298 1713 c7 -3 16 -2 19 1 4 3 -2 6 -13 5 -11 0 -14 -3 -6 -6z"/>
<path d="M747 1679 c7 -7 15 -10 18 -7 3 3 -2 9 -12 12 -14 6 -15 5 -6 -5z"/>
<path d="M780 1680 c0 -5 5 -10 11 -10 5 0 7 5 4 10 -3 6 -8 10 -11 10 -2 0
-4 -4 -4 -10z"/>
<path d="M685 1663 c3 -7 1 -13 -4 -13 -16 0 -13 -20 4 -26 8 -3 22 2 32 12
13 13 14 16 3 12 -8 -3 -21 2 -28 11 -8 9 -11 10 -7 4z"/>
<path d="M1458 1663 c-9 -2 -16 -13 -15 -23 1 -14 5 -16 13 -9 8 7 14 6 19 -1
3 -5 11 -10 18 -10 6 0 2 7 -9 15 -16 13 -17 16 -4 25 15 10 8 11 -22 3z"/>
<path d="M743 1645 c0 -7 8 -10 19 -7 10 2 18 6 18 7 0 1 -8 5 -18 7 -11 3
-19 0 -19 -7z"/>
<path d="M1544 1601 c3 -5 -1 -11 -8 -14 -22 -9 -16 -45 6 -39 10 2 20 8 23
12 3 5 -4 6 -15 3 -23 -6 -27 12 -5 21 17 6 20 26 4 26 -5 0 -8 -4 -5 -9z"/>
<path d="M1588 1591 c17 -10 17 -21 2 -31 -8 -5 -7 -9 5 -13 9 -4 14 -3 10 3
-3 6 1 13 10 16 14 6 14 8 -2 20 -10 7 -22 13 -28 14 -5 0 -4 -4 3 -9z"/>
<path d="M530 1555 c13 -16 30 -11 30 8 0 7 -4 6 -10 -3 -6 -10 -10 -11 -10
-2 0 6 -5 12 -11 12 -8 0 -8 -5 1 -15z"/>
<path d="M434 1532 c4 -6 -5 -18 -21 -26 -15 -8 -23 -15 -17 -16 7 0 22 8 35
18 17 15 19 21 9 27 -8 5 -11 4 -6 -3z"/>
<path d="M445 1500 c-3 -5 -5 -10 -3 -11 33 -8 38 -7 27 7 -14 17 -16 17 -24
4z"/>
<path d="M995 1500 c3 -5 11 -10 16 -10 6 0 7 5 4 10 -3 6 -11 10 -16 10 -6 0
-7 -4 -4 -10z"/>
<path d="M920 1490 c-9 -6 -10 -10 -3 -10 6 0 15 5 18 10 8 12 4 12 -15 0z"/>
<path d="M1693 1485 c0 -8 3 -13 5 -10 3 3 10 1 16 -5 8 -6 12 -2 13 13 0 12
-1 16 -4 9 -3 -9 -9 -10 -17 -3 -9 8 -13 6 -13 -4z"/>
<path d="M943 1463 c-12 -34 -72 -112 -80 -105 -2 2 -7 2 -11 -1 -4 -2 -1 -2
6 -1 6 2 12 1 12 -2 0 -9 -30 -36 -30 -27 0 4 -5 0 -11 -10 -6 -10 -15 -14
-22 -10 -7 4 -6 -1 2 -11 13 -15 11 -20 -14 -44 -15 -15 -25 -21 -21 -14 4 6
2 12 -4 12 -7 0 -9 -7 -6 -16 7 -19 -11 -57 -24 -49 -6 4 -7 -1 -3 -11 4 -12
3 -15 -5 -10 -7 4 -10 2 -6 -7 3 -8 -6 -21 -20 -31 -24 -15 -25 -15 -20 1 5
17 5 17 -6 1 -6 -10 -15 -18 -20 -18 -5 0 -7 8 -4 18 5 14 4 14 -4 2 -13 -17
-5 -33 13 -26 8 3 15 1 17 -4 2 -4 28 -10 59 -13 55 -5 56 -4 41 14 -9 11 -22
19 -29 19 -11 0 -10 7 2 30 9 17 21 30 27 30 6 0 9 3 5 6 -16 16 29 39 83 41
l57 2 0 -44 c0 -29 -4 -42 -11 -38 -6 4 -5 0 2 -9 15 -19 2 -31 -22 -22 -12 5
-15 2 -10 -10 6 -17 19 -19 96 -18 27 0 45 -4 42 -9 -3 -5 3 -6 12 -2 11 4 13
8 6 11 -7 2 -12 8 -12 13 0 6 5 7 10 4 6 -3 10 -1 10 4 0 6 -5 11 -11 11 -5 0
-8 4 -5 8 3 5 -1 9 -9 9 -11 0 -12 -4 -4 -14 6 -7 8 -13 3 -13 -13 0 -29 14
-29 25 -1 6 -4 60 -9 120 -4 61 -9 135 -11 165 -3 55 -19 77 -32 43z m-25 -95
c-2 -7 -7 -16 -13 -20 -6 -5 -5 -8 3 -8 9 0 12 -12 9 -40 -2 -21 0 -37 5 -34
4 3 8 0 8 -5 0 -15 -43 -14 -59 2 -8 6 -11 7 -8 2 3 -6 -3 -12 -14 -12 -26 -2
-24 6 9 47 16 19 34 45 41 58 13 24 22 29 19 10z"/>
<path d="M886 1322 c-3 -5 1 -9 9 -9 8 0 12 4 9 9 -3 4 -7 8 -9 8 -2 0 -6 -4
-9 -8z"/>
<path d="M332 1448 c-7 -9 -6 -17 3 -25 10 -10 16 -9 26 3 6 8 9 17 5 21 -3 3
-6 1 -6 -5 0 -7 -5 -12 -11 -12 -6 0 -9 7 -5 15 7 18 2 19 -12 3z"/>
<path d="M1372 1446 c-1 -21 -13 -71 -17 -75 -3 -2 -11 1 -19 8 -11 9 -15 8
-21 -6 -5 -10 -9 -21 -9 -25 -1 -3 -5 -10 -10 -15 -5 -4 -6 -3 -3 3 4 7 0 18
-9 25 -18 15 -54 20 -54 7 0 -4 -3 -7 -7 -7 -21 3 -32 -2 -27 -15 3 -8 0 -17
-7 -22 -8 -5 -11 -2 -6 8 3 9 0 21 -6 28 -9 10 -9 11 1 6 6 -4 12 -3 12 2 0
11 -66 10 -76 -1 -11 -11 -44 -8 -44 4 0 5 -5 7 -11 3 -8 -4 -7 -9 2 -15 8 -5
13 -25 12 -51 0 -24 1 -37 4 -30 3 6 9 10 13 7 5 -3 12 0 16 6 4 8 3 9 -4 5
-16 -10 -14 5 3 28 19 26 27 17 19 -22 -4 -20 -13 -32 -23 -32 -14 0 -14 -2
-1 -10 8 -5 11 -10 5 -10 -5 0 -11 -19 -12 -41 -2 -23 -7 -47 -13 -54 -5 -6
-7 -15 -3 -18 3 -4 2 -7 -4 -7 -5 0 -9 -14 -9 -30 0 -21 3 -27 10 -20 5 5 17
10 26 10 10 0 22 10 29 23 11 22 11 22 6 -3 -5 -22 -4 -23 5 -7 9 14 9 22 0
33 -9 9 -9 14 -2 14 7 0 9 7 5 17 -4 10 -2 14 5 9 6 -3 13 -2 17 4 3 5 1 10
-5 10 -7 0 -8 5 -3 13 4 6 8 14 9 17 8 42 18 60 26 48 6 -9 7 -6 3 10 -4 15
-1 24 9 28 9 3 13 10 10 15 -3 5 -1 9 4 9 6 0 12 -7 16 -15 8 -21 24 -19 62
10 43 33 61 33 39 -1 -9 -15 -12 -23 -5 -19 7 4 4 -4 -5 -18 -9 -15 -14 -31
-11 -36 4 -5 2 -12 -4 -16 -5 -3 -10 -1 -10 6 0 7 -3 10 -6 7 -3 -4 0 -16 6
-28 7 -12 8 -20 2 -16 -5 3 -13 -1 -16 -10 -9 -24 -7 -31 5 -14 9 12 9 11 4
-5 -14 -38 -14 -69 1 -89 8 -11 14 -16 14 -11 0 6 15 9 32 9 18 -1 32 -6 31
-12 -1 -6 5 -9 13 -8 19 3 41 36 24 36 -5 0 -10 -7 -10 -16 0 -8 -5 -12 -10
-9 -6 4 -2 18 11 36 24 34 34 100 14 93 -7 -3 -12 -11 -12 -17 1 -31 -4 -47
-14 -47 -5 0 -8 4 -4 9 3 5 1 12 -4 15 -11 7 -9 -13 2 -31 6 -9 3 -11 -9 -6
-12 4 -15 3 -10 -5 5 -8 2 -10 -9 -6 -10 4 -14 12 -9 23 4 9 9 28 12 44 2 15
9 30 15 34 5 3 7 2 4 -4 -4 -6 0 -19 9 -29 14 -18 15 -18 4 4 -6 12 -8 22 -4
22 3 0 2 6 -4 13 -8 10 -8 24 0 50 7 24 14 33 19 25 4 -6 3 -20 -2 -30 -13
-24 -1 -68 12 -47 5 8 9 19 9 24 0 6 -5 3 -10 -5 -13 -20 -14 5 0 29 6 13 5
24 -4 37 -18 25 -9 44 21 44 16 0 22 -4 17 -12 -4 -7 -3 -8 4 -4 7 4 16 15 22
26 8 15 6 18 -8 15 -9 -1 -23 3 -31 9 -11 8 -13 8 -7 -1 4 -7 2 -13 -3 -13
-17 0 -13 20 4 26 13 5 13 9 3 22 -10 12 -10 14 -1 8 9 -5 11 -2 7 7 -6 17
-60 28 -62 13z"/>
<path d="M994 1435 c-3 -8 -4 -20 -2 -27 3 -7 7 -1 10 15 6 29 1 36 -8 12z"/>
<path d="M1022 1405 c0 -16 2 -22 5 -12 2 9 2 23 0 30 -3 6 -5 -1 -5 -18z"/>
<path d="M375 1410 c-3 -5 1 -10 10 -10 9 0 13 5 10 10 -3 6 -8 10 -10 10 -2
0 -7 -4 -10 -10z"/>
<path d="M1774 1402 c18 -21 29 -23 27 -5 -1 4 -4 8 -8 8 -5 0 -15 4 -23 9 -9
6 -7 1 4 -12z"/>
<path d="M259 1373 c-13 -17 -13 -17 5 -3 18 14 19 14 12 -5 -16 -39 -17 -59
-1 -26 17 38 6 62 -16 34z"/>
<path d="M807 1357 c-3 -8 1 -14 9 -14 16 0 19 13 5 21 -5 3 -11 0 -14 -7z"/>
<path d="M1490 1365 c0 -2 6 -8 13 -14 10 -8 14 -7 14 2 0 8 -6 14 -14 14 -7
0 -13 -1 -13 -2z"/>
<path d="M290 1335 c-7 -14 -10 -28 -7 -32 4 -3 7 0 7 7 0 7 7 22 17 32 9 10
12 18 6 18 -5 0 -16 -11 -23 -25z"/>
<path d="M1820 1356 c0 -2 8 -10 18 -17 15 -13 16 -12 3 4 -13 16 -21 21 -21
13z"/>
<path d="M1044 1333 c2 -9 8 -18 15 -19 6 -1 7 0 1 3 -5 2 -8 9 -5 13 3 5 1
11 -4 14 -5 4 -8 -2 -7 -11z"/>
<path d="M1476 1333 c-6 -14 -5 -15 5 -6 7 7 10 15 7 18 -3 3 -9 -2 -12 -12z"/>
<path d="M1776 1324 c-8 -22 -4 -25 11 -9 7 8 9 16 4 19 -5 3 -12 -1 -15 -10z"/>
<path d="M1807 1319 c-4 -16 -3 -18 9 -8 7 6 11 15 8 20 -8 13 -11 11 -17 -12z"/>
<path d="M220 1326 c0 -2 8 -10 18 -17 15 -13 16 -12 3 4 -13 16 -21 21 -21
13z"/>
<path d="M1430 1316 c0 -2 7 -7 16 -10 8 -3 12 -2 9 4 -6 10 -25 14 -25 6z"/>
<path d="M214 1279 c0 -13 3 -15 13 -7 7 6 13 12 13 13 0 2 -6 5 -13 8 -7 3
-13 -3 -13 -14z"/>
<path d="M756 1292 c-7 -12 7 -27 26 -28 10 -1 14 4 11 12 -2 7 -12 10 -20 7
-11 -4 -14 -2 -9 5 4 7 5 12 2 12 -3 0 -7 -4 -10 -8z"/>
<path d="M1852 1291 c-11 -6 -10 -10 4 -15 9 -3 19 -4 22 -1 3 3 0 5 -7 5 -7
0 -9 5 -6 10 7 12 4 12 -13 1z"/>
<path d="M1044 1236 c1 -24 5 -32 14 -28 9 3 10 8 3 15 -5 5 -7 15 -5 22 3 7
1 15 -4 18 -4 3 -8 -9 -8 -27z"/>
<path d="M1847 1259 c8 -8 9 -17 3 -24 -14 -17 27 -12 43 5 10 12 9 12 -5 1
-15 -11 -18 -11 -18 2 0 8 -8 18 -17 22 -14 5 -15 4 -6 -6z"/>
<path d="M1001 1244 c0 -11 3 -14 6 -6 3 7 2 16 -1 19 -3 4 -6 -2 -5 -13z"/>
<path d="M1070 1240 c0 -5 5 -10 11 -10 5 0 7 5 4 10 -3 6 -8 10 -11 10 -2 0
-4 -4 -4 -10z"/>
<path d="M729 1213 c-13 -16 -12 -17 4 -4 9 7 17 15 17 17 0 8 -8 3 -21 -13z"/>
<path d="M1172 1168 c-7 -7 -11 -23 -11 -37 1 -18 3 -20 6 -8 2 9 8 15 13 12
13 -8 22 13 13 30 -7 12 -12 12 -21 3z m18 -18 c0 -5 -2 -10 -4 -10 -3 0 -8 5
-11 10 -3 6 -1 10 4 10 6 0 11 -4 11 -10z"/>
<path d="M783 1151 c10 -12 9 -14 -5 -8 -23 8 -23 0 0 -12 15 -8 18 -6 18 13
0 12 -6 23 -13 23 -10 0 -10 -3 0 -16z"/>
<path d="M1420 1125 c-10 -12 -10 -15 2 -15 8 0 15 7 15 15 0 8 -1 15 -2 15
-2 0 -8 -7 -15 -15z"/>
<path d="M1943 1088 c-15 -20 -25 -38 -20 -38 3 0 12 11 21 25 17 26 16 35 -1
13z"/>
<path d="M665 1080 c-8 -13 9 -20 24 -11 10 6 9 10 -3 14 -8 3 -18 2 -21 -3z"/>
<path d="M894 1072 c4 -3 14 -7 22 -8 9 -1 13 0 10 4 -4 3 -14 7 -22 8 -9 1
-13 0 -10 -4z"/>
<path d="M987 1069 c7 -7 15 -10 18 -7 3 3 -2 9 -12 12 -14 6 -15 5 -6 -5z"/>
<path d="M1131 968 c-1 -10 3 -18 8 -18 5 0 15 8 22 18 13 15 12 16 -3 4 -13
-10 -17 -10 -21 0 -4 8 -6 7 -6 -4z"/>
<path d="M1227 966 c3 -5 0 -6 -8 -4 -8 3 -33 -3 -56 -13 -22 -10 -45 -14 -49
-11 -4 4 -4 1 0 -6 5 -8 13 -9 26 -2 13 7 21 5 31 -7 10 -12 10 -15 2 -9 -8 4
-13 1 -13 -9 0 -10 -5 -13 -12 -9 -9 5 -9 2 1 -9 7 -9 19 -17 27 -17 15 0 11
-29 -11 -93 -8 -23 -15 -50 -15 -61 0 -16 -2 -17 -17 -5 -15 13 -15 12 -4 -9
8 -16 9 -27 3 -35 -6 -7 -11 -16 -11 -22 -1 -5 -6 -10 -13 -10 -6 0 -13 -6
-16 -13 -2 -8 3 -10 15 -6 17 5 17 5 0 -9 -12 -10 -14 -16 -6 -19 9 -3 8 -9
-2 -26 -16 -26 -34 -30 -25 -6 6 14 4 15 -9 4 -15 -12 -15 -14 2 -24 10 -5 24
-17 31 -25 11 -14 11 -13 2 7 -8 16 -8 22 0 22 6 0 8 5 5 10 -3 6 3 10 14 10
25 0 26 -4 6 -23 -13 -13 -12 -17 2 -29 11 -8 14 -9 10 -1 -5 7 -1 23 7 35 8
13 22 46 31 73 9 28 22 55 27 60 7 7 9 7 5 0 -3 -7 6 -11 22 -10 22 0 28 4 27
20 -1 11 -8 19 -15 17 -9 -2 -11 3 -7 13 3 9 2 13 -4 10 -6 -3 -8 -18 -4 -33
4 -23 4 -25 -6 -9 -9 14 -9 26 0 48 7 16 17 29 22 29 5 0 6 -5 2 -12 -4 -7 -3
-8 4 -4 6 4 8 14 5 23 -4 10 -2 14 4 10 6 -4 10 0 9 9 0 10 8 18 19 20 15 2
21 -3 22 -17 2 -18 0 -19 -14 -7 -15 12 -15 11 -5 -9 8 -14 9 -24 2 -28 -6 -4
-8 -10 -5 -15 3 -5 -2 -26 -11 -47 -10 -21 -19 -45 -20 -53 -2 -8 -6 -28 -10
-44 -5 -22 -4 -27 6 -21 9 5 11 4 6 -3 -4 -7 -1 -12 6 -13 7 0 21 -2 30 -4 9
-2 22 3 29 11 18 22 27 16 24 -16 -2 -22 1 -28 9 -21 7 6 17 6 26 1 8 -6 20
-10 25 -10 6 0 4 4 -3 9 -8 4 -14 12 -14 17 -1 16 -25 44 -31 37 -4 -3 -7 1
-7 10 0 9 5 17 11 17 5 0 7 6 3 13 -4 6 11 -7 34 -29 39 -38 45 -41 77 -34 19
4 35 5 35 2 0 -9 41 31 62 60 18 26 18 27 1 21 -10 -4 -24 -15 -31 -25 -13
-18 -38 -15 -26 3 3 5 10 6 16 3 7 -4 8 -2 4 4 -11 18 -38 2 -33 -19 7 -26
-29 -25 -43 0 -21 40 -3 81 33 75 9 -1 15 1 12 6 -3 4 10 14 28 21 17 7 40 24
51 37 15 18 21 21 27 10 6 -8 6 0 3 20 -5 25 -3 32 10 32 9 0 16 4 16 9 0 4
11 6 25 3 29 -5 28 -3 13 -39 -6 -15 -12 -30 -13 -33 0 -3 -7 -29 -14 -57 -7
-29 -16 -53 -20 -53 -4 0 -7 -12 -6 -27 0 -33 20 -52 53 -53 27 0 25 -25 -1
-25 -9 0 -22 -6 -29 -14 -11 -12 -10 -12 2 -5 8 4 24 8 34 9 13 0 23 9 27 25
4 14 8 18 8 10 1 -9 6 -6 14 9 6 14 18 26 26 29 9 3 11 0 6 -8 -5 -9 -4 -11 3
-6 7 4 12 2 12 -5 0 -6 -8 -9 -18 -7 -11 3 -19 0 -19 -7 0 -10 7 -11 23 -5 12
5 39 7 60 4 79 -10 105 -10 111 -1 3 6 1 7 -5 3 -7 -4 -12 -2 -12 3 0 6 6 11
13 11 7 0 21 14 30 30 13 22 15 30 5 30 -7 0 -2 7 10 16 18 12 20 19 12 29 -8
10 -7 16 7 24 14 8 15 10 3 11 -19 0 -43 -37 -30 -45 5 -3 0 -15 -10 -25 -23
-23 -35 -26 -24 -7 4 6 3 8 -1 4 -14 -12 -15 -38 -2 -31 7 3 3 -2 -7 -10 -24
-19 -37 -20 -57 -3 -8 6 -12 11 -10 10 2 -2 11 2 18 9 11 9 17 9 24 -3 5 -8 9
-9 9 -4 0 6 -5 17 -10 25 -9 13 -11 13 -20 0 -7 -11 -12 -12 -21 -3 -26 26 37
71 88 64 7 -1 11 4 8 11 -2 7 10 24 28 37 25 18 32 31 31 55 0 17 -3 32 -5 33
-38 17 -59 21 -64 12 -4 -5 -11 -7 -16 -4 -5 4 -9 1 -9 -4 0 -6 -6 -11 -13
-11 -7 0 -31 -18 -52 -40 -21 -22 -36 -40 -32 -40 4 0 1 -13 -8 -30 -8 -16
-15 -37 -15 -46 0 -10 -7 -25 -16 -35 -12 -13 -12 -19 -3 -25 8 -5 10 -3 4 7
-5 10 -5 11 2 4 6 -5 14 -21 18 -35 l7 -25 -28 25 c-16 14 -30 25 -31 26 -2 0
5 11 15 25 9 13 17 36 18 50 1 25 0 25 -16 10 -17 -16 -17 -36 1 -26 5 4 9 1
9 -4 0 -16 -21 -13 -44 7 -21 17 -21 17 -3 -5 15 -17 16 -25 7 -42 -6 -12 -18
-21 -28 -21 -15 0 -15 -2 -2 -11 12 -8 11 -9 -5 -7 -21 4 -23 34 -3 53 8 7 9
5 5 -6 -3 -9 0 -16 7 -16 6 0 12 8 12 18 0 10 -5 17 -11 16 -12 -2 -8 47 4 51
5 2 7 12 4 22 -3 12 0 20 6 20 7 0 9 5 5 12 -4 7 -3 8 5 4 9 -6 9 -12 -1 -24
-7 -10 -8 -14 -4 -10 5 4 15 0 22 -10 8 -9 14 -12 14 -5 0 6 -5 15 -10 18 -8
5 -7 12 2 23 7 10 9 14 4 10 -8 -7 -36 14 -36 26 0 4 10 5 23 3 12 -2 16 -2
10 0 -26 9 -12 25 17 21 21 -3 35 1 47 14 18 20 18 20 -14 23 -12 1 -20 -2
-17 -6 3 -5 -6 -9 -20 -9 -16 0 -26 6 -26 15 0 8 4 15 8 15 4 0 9 16 10 35 2
26 -1 35 -13 35 -8 0 -15 -4 -15 -10 0 -5 -7 -10 -15 -10 -8 0 -15 -9 -15 -19
0 -11 -5 -23 -10 -26 -6 -4 -8 -11 -5 -16 10 -16 -24 -22 -43 -8 -9 7 -14 9
-10 5 9 -10 -9 -36 -24 -36 -7 0 -7 4 0 13 8 9 2 12 -25 14 -19 1 -41 7 -49
14 -12 10 -13 9 -8 -4 4 -12 1 -14 -15 -10 -15 4 -21 1 -21 -12 0 -11 -5 -15
-16 -11 -10 4 -13 2 -8 -6 5 -7 2 -9 -9 -5 -11 4 -14 2 -10 -9 4 -10 0 -13
-13 -8 -15 5 -16 4 -5 -4 13 -9 11 -14 -10 -32 -13 -12 -18 -19 -12 -15 9 4
11 1 7 -9 -3 -9 -10 -14 -14 -11 -5 3 -6 -5 -2 -17 3 -14 2 -19 -6 -14 -7 4
-15 0 -18 -8 -3 -9 -11 -13 -17 -9 -6 3 -7 1 -3 -5 4 -7 1 -12 -9 -12 -11 0
-15 -5 -12 -14 7 -17 -21 -58 -34 -50 -5 3 -1 13 9 22 10 9 12 13 5 8 -16 -10
-16 -5 -3 29 5 14 14 24 19 21 4 -3 7 8 5 25 -2 16 0 28 4 25 4 -2 8 32 9 76
1 44 -1 77 -4 74 -4 -3 -16 2 -27 11 -18 15 -18 14 2 -8 12 -14 22 -29 22 -35
0 -5 -4 -3 -8 4 -12 18 -69 -4 -99 -37 -12 -14 -23 -20 -23 -13 0 6 5 12 11
12 5 0 7 5 3 12 -4 6 1 17 11 25 12 8 14 13 6 13 -10 0 -11 3 -2 13 6 8 8 16
5 20 -3 3 -1 14 4 24 5 10 12 29 15 43 5 22 3 25 -22 25 -16 0 -27 -4 -24 -9z
m-27 -70 c-7 -9 -19 -16 -27 -16 -12 0 -12 3 2 16 9 9 13 24 10 33 -5 14 -4
14 11 -1 14 -14 15 -20 4 -32z m365 -93 c-4 -10 -8 -23 -9 -30 -4 -22 -15 -26
-22 -9 -3 9 -10 16 -16 16 -5 0 -6 -5 -2 -12 5 -7 3 -8 -6 -3 -10 6 -10 11 3
20 9 7 13 16 9 21 -4 4 1 2 11 -6 10 -7 17 -9 16 -4 -3 16 1 24 12 24 7 0 8
-7 4 -17z m393 -5 c0 -13 -5 -33 -11 -46 -10 -21 -11 -21 -30 -5 -11 10 -17
12 -13 5 4 -7 1 -15 -8 -18 -9 -3 -16 -11 -16 -17 0 -5 9 -2 20 8 17 16 20 16
15 3 -7 -17 -34 -32 -42 -24 -9 9 9 47 32 70 13 13 21 27 17 32 -4 4 -2 4 5 0
6 -3 14 -2 18 4 10 16 14 12 13 -12z m-422 -50 c15 -15 -8 -28 -29 -16 -21 11
-21 10 -7 -8 8 -10 10 -16 6 -12 -5 4 -15 3 -23 -3 -16 -14 -16 -9 -3 25 9 25
38 31 56 14z m-138 -115 c2 -36 1 -36 -14 -14 -12 17 -13 25 -4 36 17 20 17
20 18 -22z m-18 -87 c9 -12 8 -15 -8 -13 -10 0 -19 7 -19 14 0 17 12 17 27 -1z"/>
<path d="M1931 776 c-9 -11 -9 -16 1 -22 7 -4 10 -4 6 1 -4 4 -3 14 3 22 6 7
9 13 6 13 -2 0 -10 -6 -16 -14z"/>
<path d="M1710 965 c-10 -13 -9 -15 8 -15 12 0 24 4 27 10 4 6 -1 7 -11 3 -12
-4 -15 -3 -10 5 10 17 1 15 -14 -3z"/>
<path d="M454 935 c-9 -14 -14 -28 -10 -32 3 -3 6 -1 6 6 0 7 4 9 10 6 6 -4 7
1 3 11 -4 10 -2 15 4 11 5 -3 10 0 10 8 0 21 -4 19 -23 -10z"/>
<path d="M1810 946 c-6 -9 -10 -21 -7 -28 4 -9 6 -7 6 4 1 9 7 18 14 21 6 2 9
7 6 11 -3 4 -12 0 -19 -8z"/>
<path d="M416 942 c2 -3 -6 -13 -18 -23 -11 -11 -17 -19 -12 -19 5 0 -2 -10
-16 -21 -14 -11 -18 -18 -10 -14 8 4 -1 -7 -20 -25 -19 -18 -26 -26 -15 -19
19 12 19 12 3 -5 -10 -12 -21 -15 -30 -10 -20 13 -37 13 -45 2 -3 -7 -1 -8 5
-4 7 4 12 1 12 -6 0 -11 2 -11 9 0 6 10 11 9 22 -4 9 -12 10 -15 2 -10 -8 4
-13 2 -13 -4 0 -6 -4 -8 -10 -5 -5 3 -10 2 -10 -4 0 -5 6 -11 13 -14 7 -3 0
-9 -15 -16 -16 -6 -28 -13 -28 -16 0 -4 5 -3 10 0 32 20 -31 -85 -82 -136
l-30 -29 54 1 c45 0 50 2 31 11 -13 6 -23 16 -23 22 0 13 49 88 64 98 18 12
87 3 97 -13 8 -13 13 -6 10 14 0 4 4 7 10 7 5 0 9 -8 8 -17 -2 -10 1 -28 5
-40 10 -31 -1 -63 -27 -73 -16 -6 -3 -9 46 -9 67 -1 80 6 52 29 -29 24 -17 67
18 61 4 0 7 5 7 12 0 8 4 7 10 -3 5 -8 10 -10 10 -4 0 19 -12 24 -32 13 -11
-6 -22 -8 -25 -5 -3 2 -7 49 -10 103 -8 155 -9 163 -20 172 -5 5 -8 6 -7 3z
m-38 -150 c-10 -12 -10 -14 0 -8 9 5 12 -3 12 -28 0 -29 -4 -36 -20 -36 -11 0
-20 5 -20 11 0 8 -6 7 -17 -2 -15 -12 -16 -12 -8 1 6 12 5 13 -6 3 -18 -18
-30 -16 -23 2 4 8 12 15 20 15 8 0 11 6 7 18 -5 15 -4 15 8 2 8 -8 13 -13 12
-11 -2 2 3 11 10 19 9 13 9 14 0 8 -18 -10 -16 1 4 35 17 28 18 29 25 8 5 -14
4 -27 -4 -37z"/>
<path d="M364 755 c3 -23 12 -26 13 -5 1 11 -2 20 -7 20 -4 0 -7 -7 -6 -15z"/>
<path d="M1078 943 c7 -3 16 -2 19 1 4 3 -2 6 -13 5 -11 0 -14 -3 -6 -6z"/>
<path d="M1770 945 c0 -5 5 -17 10 -25 5 -8 10 -10 10 -5 0 6 -5 17 -10 25 -5
8 -10 11 -10 5z"/>
<path d="M1704 924 c-18 -14 -18 -15 4 -4 12 6 22 13 22 15 0 8 -5 6 -26 -11z"/>
<path d="M1037 905 c-55 -26 -76 -42 -33 -25 24 9 27 8 22 -6 -3 -8 -6 -21 -6
-28 0 -8 -10 -13 -22 -12 -15 1 -28 -8 -35 -23 -16 -29 -16 -41 0 -21 7 8 21
17 31 18 16 3 18 1 8 -11 -6 -7 -9 -16 -7 -19 3 -3 0 -18 -6 -34 -14 -34 -13
-28 -23 -78 -6 -29 -10 -36 -17 -25 -6 10 -8 5 -5 -16 8 -54 18 -73 42 -78 29
-5 88 31 92 58 2 11 8 25 13 32 7 7 6 13 0 18 -6 3 -17 -10 -25 -30 -15 -35
-37 -52 -55 -41 -16 10 -1 45 17 38 14 -5 15 -3 4 10 -17 21 5 106 29 113 9 3
20 13 24 22 5 14 2 14 -15 -2 -21 -19 -21 -19 -10 9 5 15 7 32 4 38 -4 6 1 6
14 -1 11 -6 23 -16 26 -23 4 -7 4 -3 2 10 -4 18 -2 21 9 12 10 -8 15 -8 20 0
10 16 2 21 -34 22 -25 1 -31 5 -26 17 4 9 8 25 11 35 2 11 9 23 15 26 7 5 7 9
-3 12 -7 3 -35 -5 -61 -17z"/>
<path d="M326 883 c-6 -14 -5 -15 5 -6 7 7 10 15 7 18 -3 3 -9 -2 -12 -12z"/>
<path d="M454 885 c-3 -8 -4 -20 -2 -27 3 -7 7 -1 10 15 6 29 1 36 -8 12z"/>
<path d="M659 883 c-13 -16 -12 -17 4 -4 9 7 17 15 17 17 0 8 -8 3 -21 -13z"/>
<path d="M695 892 c3 -3 -3 -11 -13 -19 -15 -13 -15 -13 4 -4 12 6 23 8 26 6
3 -3 5 1 5 8 0 8 -6 14 -14 14 -7 0 -11 -3 -8 -5z"/>
<path d="M883 885 c0 -8 4 -12 9 -9 5 3 6 10 3 15 -9 13 -12 11 -12 -6z"/>
<path d="M1104 880 c0 -14 4 -16 12 -9 9 7 17 3 28 -13 9 -12 16 -18 16 -12 0
10 -23 35 -45 47 -6 3 -11 -3 -11 -13z"/>
<path d="M1280 885 c-11 -14 -7 -19 13 -16 4 0 7 -3 7 -9 0 -5 5 -10 12 -10 6
0 4 7 -5 18 -10 10 -14 22 -10 25 3 4 4 7 1 7 -3 0 -11 -7 -18 -15z"/>
<path d="M1620 880 c6 -11 13 -20 16 -20 2 0 0 9 -6 20 -6 11 -13 20 -16 20
-2 0 0 -9 6 -20z"/>
<path d="M1939 883 c-13 -16 -12 -17 4 -4 16 13 21 21 13 21 -2 0 -10 -8 -17
-17z"/>
<path d="M1976 889 c2 -4 -2 -10 -8 -12 -8 -4 -9 -6 -2 -6 6 -1 17 5 23 12 8
10 7 14 -4 14 -8 0 -12 -4 -9 -8z"/>
<path d="M930 880 c8 -5 22 -9 30 -9 10 0 8 3 -5 9 -27 12 -43 12 -25 0z"/>
<path d="M1800 869 c0 -5 5 -7 10 -4 6 3 10 8 10 11 0 2 -4 4 -10 4 -5 0 -10
-5 -10 -11z"/>
<path d="M897 863 c-4 -3 -2 -12 4 -19 8 -9 5 -11 -10 -7 -12 3 -18 10 -14 17
5 8 3 8 -8 0 -8 -6 -24 -10 -36 -9 -12 1 -20 -2 -17 -7 3 -4 1 -8 -5 -8 -5 0
-15 -16 -22 -35 -7 -19 -18 -35 -24 -35 -6 0 -7 -3 0 -8 6 -4 17 -20 25 -37 8
-16 22 -38 32 -48 21 -21 24 -70 6 -84 -7 -5 -23 -10 -36 -11 -20 -1 -21 1 -7
14 11 11 12 20 5 33 -5 10 -7 21 -5 23 3 3 -5 4 -18 4 -13 -1 -32 -9 -41 -19
-25 -25 -43 -21 -20 4 19 22 19 22 -4 10 -32 -17 -56 -7 -49 22 6 22 6 22 -9
2 -9 -13 -11 -21 -4 -23 8 -3 8 -8 0 -17 -8 -10 -8 -15 1 -21 8 -5 9 -3 4 6
-6 9 -4 11 5 5 9 -6 11 -4 5 5 -5 9 -4 11 4 6 9 -6 9 -11 0 -22 -6 -7 -15 -11
-20 -8 -5 3 -9 1 -9 -3 0 -12 -38 -14 -45 -2 -14 21 -15 61 -3 72 22 20 41 20
34 0 -4 -10 4 -5 17 11 16 19 28 26 37 21 8 -5 11 -4 7 3 -4 5 7 22 24 36 17
14 27 26 23 26 -4 0 1 10 12 22 10 12 13 18 5 13 -11 -6 -13 -2 -7 19 l6 26
-60 -1 c-47 -1 -60 -5 -60 -17 0 -8 -3 -12 -7 -9 -3 4 -13 -2 -20 -13 -8 -11
-19 -17 -25 -14 -7 5 -8 2 -3 -6 4 -7 4 -15 -1 -19 -11 -7 -36 -58 -40 -81
-18 -94 3 -133 70 -129 44 3 51 -12 18 -38 -16 -12 -16 -13 1 -7 19 7 21 -15
2 -28 -5 -4 0 -6 12 -5 12 0 20 4 17 9 -2 4 5 12 17 18 11 7 18 14 15 17 -3 3
-12 0 -20 -6 -10 -8 -16 -9 -21 -1 -3 5 -1 10 6 10 7 0 10 3 6 6 -3 4 4 15 16
25 12 10 16 18 10 19 -7 0 -13 -4 -13 -10 0 -5 -5 -10 -12 -10 -6 0 -3 9 7 20
24 26 46 10 27 -20 -7 -11 -8 -20 -3 -20 13 0 23 34 15 54 -6 17 3 21 22 8 6
-4 25 -27 42 -51 18 -24 32 -39 32 -33 0 6 -4 14 -10 17 -18 11 -10 27 10 22
31 -8 77 14 91 42 16 34 15 69 -2 104 -12 26 -11 30 4 39 10 5 14 14 11 20 -5
7 0 9 14 6 12 -4 20 -3 18 1 -3 4 1 19 9 34 10 19 10 26 2 24 -7 -1 -12 8 -11
19 0 16 -4 20 -14 16 -10 -3 -13 -1 -8 6 8 13 3 16 -7 5z m-219 -65 c-1 -40
-21 -69 -63 -90 -22 -11 -34 -14 -27 -7 6 7 12 20 12 29 0 16 59 90 71 90 4 0
8 -10 7 -22z m191 5 c1 9 5 17 10 17 11 0 8 -73 -4 -82 -17 -13 -25 -9 -36 16
-8 17 -8 30 2 47 12 23 12 23 20 4 6 -17 8 -17 8 -2z m-89 -183 c6 -11 8 -20
6 -20 -3 0 -10 9 -16 20 -6 11 -8 20 -6 20 3 0 10 -9 16 -20z"/>
<path d="M640 779 c-13 -7 -13 -9 0 -9 9 -1 5 -6 -10 -15 -15 -9 -19 -14 -10
-15 13 0 13 -2 0 -11 -12 -9 -12 -10 3 -5 10 3 22 6 25 6 4 0 1 4 -7 9 -11 7
-9 10 8 16 21 6 27 20 13 29 -4 2 -14 1 -22 -5z"/>
<path d="M1580 860 c0 -5 5 -10 11 -10 5 0 7 5 4 10 -3 6 -8 10 -11 10 -2 0
-4 -4 -4 -10z"/>
<path d="M2016 857 c3 -10 9 -15 12 -12 3 3 0 11 -7 18 -10 9 -11 8 -5 -6z"/>
<path d="M945 849 c-4 -6 -5 -12 -2 -15 2 -3 7 2 10 11 7 17 1 20 -8 4z"/>
<path d="M1116 852 c-3 -5 1 -9 9 -9 8 0 12 4 9 9 -3 4 -7 8 -9 8 -2 0 -6 -4
-9 -8z"/>
<path d="M566 812 c-3 -5 1 -9 9 -9 8 0 12 4 9 9 -3 4 -7 8 -9 8 -2 0 -6 -4
-9 -8z"/>
<path d="M770 800 c-6 -11 -8 -20 -6 -20 3 0 10 9 16 20 6 11 8 20 6 20 -3 0
-10 -9 -16 -20z"/>
<path d="M1140 790 c0 -5 5 -10 11 -10 5 0 7 5 4 10 -3 6 -8 10 -11 10 -2 0
-4 -4 -4 -10z"/>
<path d="M215 780 c-4 -6 -11 -7 -17 -4 -7 5 -8 2 -4 -5 5 -7 11 -10 14 -7 3
3 11 1 19 -6 10 -8 17 -8 26 1 9 10 8 11 -7 5 -13 -5 -17 -4 -12 4 3 6 2 13
-3 16 -5 4 -12 2 -16 -4z"/>
<path d="M1383 735 c0 -8 4 -12 9 -9 4 3 8 9 8 15 0 5 -4 9 -8 9 -5 0 -9 -7
-9 -15z"/>
<path d="M1989 733 c-12 -16 -12 -17 2 -6 9 7 20 9 24 5 5 -4 5 -1 1 6 -9 16
-11 15 -27 -5z"/>
<path d="M502 727 c-8 -10 -6 -13 9 -14 19 -2 26 11 10 21 -5 3 -14 0 -19 -7z"/>
<path d="M745 720 c3 -5 8 -10 11 -10 2 0 4 5 4 10 0 6 -5 10 -11 10 -5 0 -7
-4 -4 -10z"/>
<path d="M693 708 c3 -10 2 -20 -3 -23 -5 -3 -6 -13 -3 -21 3 -9 9 -12 12 -7
3 4 12 8 20 8 8 0 15 6 17 13 1 7 0 8 -3 2 -2 -5 -9 -10 -14 -10 -6 0 -8 3 -5
8 2 4 -3 16 -11 27 -12 16 -14 16 -10 3z"/>
<path d="M715 710 c3 -5 8 -10 11 -10 2 0 4 5 4 10 0 6 -5 10 -11 10 -5 0 -7
-4 -4 -10z"/>
<path d="M755 679 c-4 -6 -5 -12 -2 -15 2 -3 7 2 10 11 7 17 1 20 -8 4z"/>
<path d="M1562 681 c-6 -4 -5 -11 2 -17 10 -9 15 -7 23 6 9 13 8 17 -3 17 -7
0 -17 -3 -22 -6z"/>
<path d="M315 670 c-3 -6 1 -7 9 -4 18 7 21 14 7 14 -6 0 -13 -4 -16 -10z"/>
<path d="M1910 670 c0 -5 7 -7 15 -4 8 4 15 8 15 10 0 2 -7 4 -15 4 -8 0 -15
-4 -15 -10z"/>
<path d="M1600 660 c-9 -6 -10 -10 -3 -10 6 0 15 5 18 10 8 12 4 12 -15 0z"/>
<path d="M354 644 c-18 -14 -18 -15 4 -4 12 6 22 13 22 15 0 8 -5 6 -26 -11z"/>
<path d="M800 656 c0 -2 8 -10 18 -17 15 -13 16 -12 3 4 -13 16 -21 21 -21 13z"/>
<path d="M1030 656 c0 -2 8 -10 18 -17 15 -13 16 -12 3 4 -13 16 -21 21 -21
13z"/>
<path d="M1497 649 c7 -7 15 -10 18 -7 3 3 -2 9 -12 12 -14 6 -15 5 -6 -5z"/>
<path d="M1537 649 c7 -7 15 -10 18 -7 3 3 -2 9 -12 12 -14 6 -15 5 -6 -5z"/>
<path d="M360 620 c0 -5 7 -7 15 -4 8 4 15 8 15 10 0 2 -7 4 -15 4 -8 0 -15
-4 -15 -10z"/>
<path d="M600 619 c0 -5 -5 -7 -12 -3 -7 4 -8 3 -4 -5 6 -9 11 -9 22 0 17 14
18 19 4 19 -5 0 -10 -5 -10 -11z"/>
<path d="M809 617 c6 -8 7 -18 3 -22 -4 -5 -1 -5 6 -1 10 6 10 11 1 22 -6 8
-14 14 -16 14 -3 0 0 -6 6 -13z"/>
<path d="M1480 621 c0 -7 -5 -9 -12 -5 -7 5 -8 3 -3 -5 5 -9 10 -10 18 -2 6 6
8 14 4 18 -4 3 -7 1 -7 -6z"/>
<path d="M1187 607 c-3 -8 -1 -20 5 -28 8 -11 9 -11 5 3 -3 9 -1 18 6 21 8 2
8 5 0 10 -6 4 -13 1 -16 -6z"/>
<path d="M489 602 c-14 -6 -14 -9 -4 -19 10 -9 14 -8 18 8 3 10 4 19 4 18 -1
0 -9 -3 -18 -7z"/>
<path d="M1583 605 c3 -6 -1 -19 -9 -30 -9 -12 -14 -14 -14 -5 0 9 -6 8 -20
-5 -19 -17 -19 -20 -5 -28 12 -6 21 -3 30 10 8 10 15 22 15 27 0 5 6 3 14 -3
11 -10 14 -9 12 4 -1 8 -8 21 -16 28 -7 6 -10 7 -7 2z m-23 -49 c0 -3 -4 -8
-10 -11 -5 -3 -10 -1 -10 4 0 6 5 11 10 11 6 0 10 -2 10 -4z"/>
<path d="M1211 583 c4 -22 -3 -30 -23 -29 -13 1 -23 -4 -23 -11 0 -6 -3 -15
-7 -19 -5 -4 -8 -12 -8 -18 0 -6 4 -5 9 3 8 12 15 13 35 3 19 -9 27 -8 36 3 7
8 16 13 20 10 5 -3 12 0 16 7 4 7 3 10 -1 5 -12 -10 -45 22 -38 39 3 8 0 14
-6 14 -6 0 -10 -3 -10 -7z m-2 -45 c11 -10 13 -10 7 0 -4 6 -3 12 3 12 17 0
21 -17 7 -29 -10 -9 -19 -7 -37 9 -18 14 -20 19 -8 20 8 0 21 -6 28 -12z"/>
<path d="M1397 559 c12 -12 24 -21 27 -18 2 2 -8 13 -22 23 l-27 19 22 -24z"/>
<path d="M503 546 c0 -9 3 -16 6 -17 31 -5 63 -5 66 2 3 4 -3 6 -12 5 -10 -2
-21 2 -25 8 -5 7 -8 6 -8 -3 0 -11 -3 -10 -13 3 -12 16 -14 16 -14 2z"/>
<path d="M710 544 c-18 -20 7 -48 30 -34 12 8 12 10 1 10 -11 0 -11 3 0 18 11
14 10 13 -9 -2 -23 -20 -31 -9 -10 12 7 7 9 12 6 12 -3 0 -11 -7 -18 -16z"/>
<path d="M1615 550 c-3 -6 1 -7 9 -4 18 7 21 14 7 14 -6 0 -13 -4 -16 -10z"/>
<path d="M843 534 c-5 -13 -7 -13 -14 -2 -7 11 -9 11 -9 -1 0 -11 -3 -11 -17
0 -16 12 -17 12 -6 -2 7 -9 12 -18 10 -20 -1 -2 2 -1 7 3 5 4 16 2 25 -5 12
-9 13 -9 7 1 -4 6 -3 12 2 12 5 0 9 7 9 15 0 19 -6 19 -14 -1z"/>
<path d="M1571 527 c-13 -21 -12 -21 5 -5 10 10 16 20 13 22 -3 3 -11 -5 -18
-17z"/>
<path d="M1816 541 c-4 -5 3 -15 14 -21 12 -6 19 -18 16 -25 -3 -9 0 -12 10
-8 7 3 14 -1 14 -8 0 -7 3 -9 6 -6 4 4 1 13 -6 22 -11 13 -8 14 19 11 17 -2
28 0 26 4 -3 5 0 10 7 12 7 3 5 7 -6 11 -10 4 -15 3 -11 -3 3 -6 3 -10 -2 -11
-4 0 -18 -2 -31 -3 -14 -2 -29 5 -37 16 -7 12 -15 15 -19 9z"/>
<path d="M980 529 c0 -5 -5 -7 -12 -3 -7 4 -8 3 -4 -5 6 -9 11 -9 22 0 17 14
18 19 4 19 -5 0 -10 -5 -10 -11z"/>
<path d="M1019 538 c-6 -21 -5 -38 1 -38 5 0 8 9 7 20 -1 17 -5 26 -8 18z"/>
<path d="M1500 530 c13 -9 13 -10 0 -11 -8 -1 -19 0 -25 1 -5 1 -7 -2 -3 -6 5
-4 23 -8 40 -10 26 -2 29 -1 13 6 -14 6 -15 9 -5 9 13 1 13 2 0 11 -8 5 -19
10 -25 10 -5 0 -3 -5 5 -10z"/>
<path d="M1743 532 c-40 -6 -25 -17 25 -18 26 -1 41 1 34 3 -6 3 -10 9 -7 13
5 9 -6 9 -52 2z"/>
<path d="M1310 515 c-7 -9 -8 -15 -2 -15 5 0 12 7 16 15 3 8 4 15 2 15 -2 0
-9 -7 -16 -15z"/>
<path d="M1421 527 c2 -1 13 -9 24 -17 19 -14 19 -14 6 3 -7 9 -18 17 -24 17
-6 0 -8 -1 -6 -3z"/>
<path d="M665 453 c11 -3 26 -10 33 -15 8 -7 12 -7 12 0 0 12 -25 22 -48 21
-13 -1 -12 -3 3 -6z"/>
<path d="M1855 449 c-11 -16 -1 -19 13 -3 7 8 8 14 3 14 -5 0 -13 -5 -16 -11z"/>
<path d="M882 400 c-16 -26 -15 -28 4 -26 12 1 17 -8 18 -26 1 -15 7 -33 13
-39 9 -9 10 0 7 32 -2 24 -1 38 2 31 3 -6 11 -9 17 -5 7 4 5 -2 -3 -12 -8 -10
-10 -16 -4 -12 7 4 10 -10 8 -44 -1 -27 2 -52 7 -55 5 -3 8 0 7 7 -2 7 2 13 9
14 6 0 15 4 20 9 5 5 2 6 -6 1 -9 -5 -12 -3 -9 5 2 7 13 15 23 16 11 2 21 8
23 14 3 7 12 5 25 -7 20 -16 20 -16 8 0 -12 15 -11 17 8 14 12 -2 27 -9 34
-17 10 -10 9 -12 -5 -7 -13 4 -15 2 -11 -10 5 -13 2 -15 -11 -10 -9 4 -15 3
-11 -2 6 -10 44 -11 43 -1 0 3 1 7 2 10 7 13 5 88 -2 84 -4 -3 -8 1 -8 9 0 8
-6 19 -13 25 -10 9 -17 6 -29 -8 -9 -10 -13 -20 -8 -22 5 -2 2 -11 -5 -22 -13
-17 -14 -17 -11 6 1 13 6 30 11 37 5 9 4 12 -3 7 -6 -3 -13 2 -15 11 -4 17 -5
17 -6 0 -1 -12 -5 -16 -13 -11 -9 5 -9 2 1 -9 12 -15 11 -17 -9 -17 -16 0 -20
4 -16 15 4 12 -3 15 -33 15 -22 0 -41 5 -43 10 -2 6 -9 1 -16 -10z m123 -67
c-2 -10 -4 -22 -4 -26 -1 -5 -5 -6 -10 -2 -5 3 -17 -5 -26 -17 l-16 -23 3 25
c3 28 27 60 44 60 7 0 11 -8 9 -17z m89 -10 c5 -12 4 -13 -7 -5 -8 7 -16 9
-19 6 -3 -3 -8 -1 -11 3 -3 5 3 9 13 10 10 1 21 -5 24 -14z"/>
<path d="M1144 409 c-3 -6 -14 -9 -23 -6 -11 2 -18 -1 -18 -9 0 -8 7 -14 14
-14 10 0 13 -9 11 -27 -2 -20 2 -28 12 -28 9 0 14 7 12 19 -3 14 1 17 15 13
16 -6 16 -5 1 5 -15 11 -15 13 0 25 16 11 16 12 -1 13 -10 0 -15 5 -12 10 3 6
4 10 1 10 -3 0 -8 -5 -12 -11z"/>
<path d="M1292 415 c4 -4 -2 -16 -14 -26 -13 -12 -16 -19 -8 -19 7 0 11 -3 7
-6 -3 -3 -16 -3 -29 2 l-23 7 25 10 25 10 -25 7 c-31 9 -54 -14 -40 -40 6 -10
5 -21 0 -26 -6 -6 -2 -10 12 -11 12 -1 25 -8 29 -15 9 -15 1 -27 -9 -13 -11
15 -26 15 -40 -1 -11 -12 -10 -14 5 -14 15 0 16 -2 3 -11 -13 -9 -13 -10 0 -6
8 2 14 10 13 16 -4 17 8 13 24 -6 9 -13 13 -14 11 -3 -2 8 2 14 9 15 7 0 18 6
24 12 10 10 8 12 -9 8 -23 -4 -28 10 -12 35 8 13 10 12 10 -2 0 -23 6 -23 41
3 23 16 27 24 19 38 -5 10 -8 20 -7 22 1 2 0 3 -2 2 -2 -1 -13 3 -25 9 -11 6
-18 7 -14 3z"/>
<path d="M1396 408 c3 -4 -5 -7 -18 -5 -17 1 -23 -3 -23 -18 0 -11 -4 -26 -9
-34 -6 -10 -5 -12 2 -7 7 4 12 1 12 -8 0 -8 13 -20 29 -27 17 -8 25 -16 19
-20 -5 -4 2 -6 16 -6 17 0 26 5 26 16 0 10 -3 12 -8 5 -5 -7 -14 -7 -30 2 -14
7 -19 13 -12 16 7 2 13 16 13 31 0 15 3 27 8 27 5 0 9 5 9 11 0 5 -5 7 -12 3
-7 -5 -9 -2 -6 8 4 8 0 15 -8 15 -7 0 -11 -4 -8 -9z"/>
<path d="M1447 413 c7 -3 2 -19 -10 -43 -24 -43 -19 -58 12 -38 18 11 23 11
31 -2 5 -8 6 -18 3 -24 -3 -5 -1 -6 5 -2 15 9 15 39 0 54 -9 9 -8 12 5 12 12
0 17 -8 17 -27 1 -26 2 -27 14 -10 8 10 17 14 20 8 3 -5 0 -12 -6 -15 -7 -3
-1 -4 15 -2 15 2 27 1 27 -1 0 -13 -22 -43 -32 -43 -7 0 -7 5 1 14 12 14 10
15 -28 7 -2 -1 2 -8 9 -16 16 -19 56 -13 52 8 -4 21 17 32 31 17 10 -10 8 -11
-8 -6 -18 7 -18 5 3 -17 12 -13 19 -27 15 -31 -4 -3 -8 -14 -9 -22 -1 -9 1
-13 4 -9 4 4 7 12 7 18 0 5 6 12 14 15 10 3 12 0 8 -11 -3 -9 -3 -19 2 -21 4
-3 8 0 8 7 0 7 3 19 5 27 3 8 3 12 1 8 -2 -4 -11 -4 -19 -1 -7 3 -11 10 -7 16
3 6 1 7 -5 3 -12 -7 -11 13 1 44 12 29 15 67 6 81 -5 9 -9 10 -9 2 0 -6 -10
-13 -22 -15 -32 -4 -35 -36 -6 -47 22 -9 21 -10 -8 -10 -27 -1 -31 3 -31 24 0
14 3 25 7 25 3 0 7 7 7 15 0 8 -5 11 -11 8 -14 -9 -57 -13 -52 -5 2 4 -14 7
-37 8 -22 0 -36 -1 -30 -3z m63 -23 c0 -5 -6 -10 -14 -10 -8 0 -18 5 -21 10
-3 6 3 10 14 10 12 0 21 -4 21 -10z m40 6 c0 -3 -4 -8 -10 -11 -5 -3 -10 -1
-10 4 0 6 5 11 10 11 6 0 10 -2 10 -4z m83 -23 c-7 -2 -19 -2 -25 0 -7 3 -2 5
12 5 14 0 19 -2 13 -5z"/>
<path d="M1659 407 c7 -10 10 -17 5 -18 -5 0 1 -4 14 -9 12 -5 22 -14 22 -20
0 -7 -7 -7 -22 0 l-23 11 23 -18 c26 -21 34 -52 20 -70 -6 -7 -5 -14 3 -19 7
-4 9 -3 6 3 -7 10 21 42 30 35 3 -2 8 -1 11 3 4 4 0 5 -8 3 -8 -2 -14 3 -12
10 1 8 -1 11 -6 8 -5 -3 -9 8 -10 24 -1 39 16 38 30 -1 8 -25 15 -30 32 -25
11 3 24 6 28 6 10 0 29 71 22 82 -3 5 -12 4 -19 -2 -8 -7 -19 -9 -24 -6 -5 4
-12 2 -16 -4 -8 -13 -25 -13 -25 1 0 5 5 7 12 3 6 -4 8 -3 5 4 -7 11 -20 10
-51 -3 -11 -5 -27 -3 -40 5 -19 12 -20 12 -7 -3z m161 -7 c0 -5 -5 -10 -11
-10 -5 0 -7 5 -4 10 3 6 8 10 11 10 2 0 4 -4 4 -10z m-20 -32 c0 -4 -6 -8 -12
-8 -9 0 -8 -4 2 -10 13 -8 12 -10 -2 -10 -10 0 -18 2 -18 4 0 2 -2 11 -5 18
-4 9 2 14 15 14 11 0 20 -4 20 -8z"/>
<path d="M743 402 c-19 -3 -23 -9 -22 -40 0 -20 3 -31 6 -24 2 6 11 12 19 12
8 0 14 -6 15 -12 0 -7 5 -2 11 12 6 14 10 28 10 32 -1 4 4 5 11 2 8 -3 14 -11
14 -19 0 -8 -5 -11 -11 -8 -6 3 -1 -5 11 -18 12 -14 33 -25 45 -26 13 0 17 1
10 4 -6 3 -9 10 -5 16 4 7 0 7 -10 -1 -14 -12 -16 -11 -14 7 1 16 6 19 20 15
13 -4 17 -2 13 5 -4 6 -15 11 -24 12 -11 0 -12 3 -4 6 6 2 12 10 12 16 0 12
-57 16 -107 9z m22 -32 c3 -5 -3 -10 -14 -10 -12 0 -21 5 -21 10 0 6 6 10 14
10 8 0 18 -4 21 -10z"/>
<path d="M32 360 c0 -19 2 -27 5 -17 2 9 2 25 0 35 -3 9 -5 1 -5 -18z"/>
<path d="M80 381 c13 -9 13 -14 2 -32 -11 -18 -11 -20 0 -17 18 6 17 50 -2 55
-13 4 -13 3 0 -6z"/>
<path d="M122 360 c0 -19 2 -27 5 -17 2 9 2 25 0 35 -3 9 -5 1 -5 -18z"/>
<path d="M150 384 c0 -4 11 -17 25 -30 17 -15 25 -19 25 -9 0 7 -9 17 -20 20
-11 4 -18 11 -15 16 4 5 1 9 -4 9 -6 0 -11 -3 -11 -6z"/>
<path d="M224 375 c-8 -20 2 -45 18 -44 10 0 10 2 1 6 -7 2 -13 13 -13 23 0
10 6 21 13 23 9 4 9 6 -1 6 -7 1 -15 -6 -18 -14z"/>
<path d="M297 378 c-6 -16 10 -48 24 -48 6 0 3 7 -6 16 -12 12 -13 19 -4 30 7
9 8 14 1 14 -6 0 -12 -6 -15 -12z"/>
<path d="M350 375 c10 -12 10 -18 0 -30 -7 -9 -8 -15 -2 -15 13 0 23 26 16 45
-4 8 -11 15 -16 15 -6 0 -5 -6 2 -15z"/>
<path d="M391 360 c6 -16 15 -30 20 -30 11 0 32 50 25 58 -3 2 -8 -8 -12 -23
l-7 -28 -14 27 c-18 35 -24 33 -12 -4z"/>
<path d="M461 360 c1 -19 3 -27 6 -17 2 9 12 17 21 18 14 0 14 2 2 6 -8 3 -18
11 -22 17 -4 6 -7 -5 -7 -24z"/>
<path d="M532 360 c0 -19 2 -29 5 -22 6 14 33 16 33 2 0 -25 15 -7 17 20 1 17
-2 30 -7 30 -5 0 -7 -7 -4 -15 4 -10 0 -15 -14 -15 -11 0 -23 8 -25 18 -3 9
-5 1 -5 -18z"/>
<path d="M670 375 c7 -9 10 -19 6 -22 -4 -4 -11 -2 -15 6 -6 10 -10 9 -15 -4
-3 -9 -6 -17 -6 -18 0 -1 14 -2 30 -2 17 0 30 1 30 2 0 12 -25 53 -33 53 -5 0
-4 -7 3 -15z"/>
<path d="M1877 363 c9 -16 17 -29 18 -30 0 -1 6 12 13 30 10 29 10 30 -3 13
-13 -17 -15 -17 -21 -3 -3 10 -10 17 -15 17 -5 0 -2 -12 8 -27z"/>
<path d="M1934 375 c-8 -19 2 -45 17 -45 8 0 8 4 -1 15 -10 12 -10 18 0 30 9
11 9 15 1 15 -6 0 -14 -7 -17 -15z"/>
<path d="M1987 369 c4 -12 0 -25 -8 -31 -12 -8 -11 -9 1 -5 17 4 27 57 12 57
-6 0 -8 -9 -5 -21z"/>
<path d="M2020 374 c0 -8 5 -12 10 -9 6 4 8 11 5 16 -9 14 -15 11 -15 -7z"/>
<path d="M2068 360 c-3 -16 -1 -30 4 -30 4 0 8 14 8 30 0 17 -2 30 -4 30 -2 0
-6 -13 -8 -30z"/>
<path d="M886 361 c-3 -4 -4 -23 -1 -40 3 -26 1 -31 -11 -27 -9 3 -12 2 -9 -5
4 -5 12 -8 18 -6 7 2 20 -3 30 -11 16 -14 17 -14 12 0 -4 9 -12 19 -19 21 -7
3 -12 20 -11 41 1 38 0 42 -9 27z"/>
<path d="M2030 340 c0 -5 5 -10 11 -10 5 0 7 5 4 10 -3 6 -8 10 -11 10 -2 0
-4 -4 -4 -10z"/>
<path d="M1145 300 c-3 -5 -1 -10 4 -10 6 0 11 5 11 10 0 6 -2 10 -4 10 -3 0
-8 -4 -11 -10z"/>
<path d="M1373 285 c0 -8 6 -16 14 -19 11 -4 11 -1 3 14 -13 24 -17 25 -17 5z"/>
<path d="M1165 270 c3 -5 8 -10 11 -10 2 0 4 5 4 10 0 6 -5 10 -11 10 -5 0 -7
-4 -4 -10z"/>
<path d="M1476 272 c-3 -4 4 -9 15 -9 23 -2 25 3 4 10 -8 4 -16 3 -19 -1z"/>
<path d="M910 246 c0 -2 8 -10 18 -17 15 -13 16 -12 3 4 -13 16 -21 21 -21 13z"/>
<path d="M977 229 c7 -7 15 -10 18 -7 3 3 -2 9 -12 12 -14 6 -15 5 -6 -5z"/>
<path d="M1450 173 c0 -1 8 -7 18 -12 13 -7 19 -6 19 2 0 7 -9 13 -19 13 -10
0 -18 -1 -18 -3z"/>
<path d="M1500 174 c0 -5 8 -14 18 -21 15 -9 19 -8 19 3 0 8 -3 12 -5 9 -3 -3
-11 0 -19 6 -7 6 -13 7 -13 3z"/>
<path d="M1015 160 c-3 -5 -1 -10 5 -10 6 0 8 -5 4 -12 -4 -7 -3 -8 4 -4 6 4
9 13 5 21 -6 18 -10 19 -18 5z"/>
<path d="M1446 147 c3 -10 9 -15 12 -12 3 3 0 11 -7 18 -10 9 -11 8 -5 -6z"/>
<path d="M1470 136 c0 -2 7 -7 16 -10 8 -3 12 -2 9 4 -6 10 -25 14 -25 6z"/>
<path d="M1105 91 c-3 -5 -2 -12 3 -15 5 -3 9 1 9 9 0 17 -3 19 -12 6z"/>
<path d="M1218 93 c6 -2 18 -2 25 0 6 3 1 5 -13 5 -14 0 -19 -2 -12 -5z"/>
<path d="M1228 73 c7 -3 16 -2 19 1 4 3 -2 6 -13 5 -11 0 -14 -3 -6 -6z"/>
<path d="M1268 63 c7 -3 16 -2 19 1 4 3 -2 6 -13 5 -11 0 -14 -3 -6 -6z"/>
</g>
</svg>
